# xmcd
#
# Track frame offsets: 
#        150
#        21668
#        51976
#        73741
#        90194
#        106193
#        123730
#        143598
#        168725
#        184001
#        209568
#        227127
#        251787
#        274620
#        292707
#        311548
#
# Disc length: 4355 seconds
#
# Revision: 0
# Processed by: cddbd v1.5.2PL0 Copyright (c) Steve Scherf et al.
# Submitted via: ExactAudioCopy v1.0b1
#
DISCID=ec110110
DTITLE=אילן וירצברג - האוסף הפרטי
DYEAR=2010
DGENRE=hebrew
TTITLE0=סקס אחר
TTITLE1=לא יכולתי לעשות כלום
TTITLE2=על מדרגות התיאטרון
TTITLE3=משני צדי הכדור
TTITLE4=כל הלילה מעל ההר
TTITLE5=כוכב שמסתובב
TTITLE6=רוץ
TTITLE7=עד שתבוא האהבה
TTITLE8=לא חזרת
TTITLE9=הדרך לגן עדן
TTITLE10=הזמן לא מרפא את הכאב
TTITLE11=כמו בסרטים של דיסני
TTITLE12=עוד יום עלה
TTITLE13=מחכה שיפסק
TTITLE14=רוח חמה
TTITLE15=געגועים
EXTD=
EXTT0=
EXTT1=
EXTT2=
EXTT3=
EXTT4=
EXTT5=
EXTT6=
EXTT7=
EXTT8=
EXTT9=
EXTT10=
EXTT11=
EXTT12=
EXTT13=
EXTT14=
EXTT15=
PLAYORDER=
